<svg xmlns="http://www.w3.org/2000/svg" enable-background="new 0 0 24 24" viewBox="0 0 24 24"><path fill="#303c42" d="M20.926,19.074c-0.207-0.136-0.421-0.276-0.573-0.428c-0.088-0.088-0.048-0.497-0.026-0.717   c0.042-0.422,0.084-0.857-0.199-1.17c-0.036-0.04-0.099-0.078-0.157-0.117C19.985,16.438,20,16.237,20,16   c0-3.247-1.496-5.12-2.697-6.625C16.575,8.463,16,7.743,16,7l0.001-0.233c0.008-1.38,0.024-4.253-1.502-5.788   C13.853,0.33,13.012,0,12,0C9.899,0,8.5,1.021,8.5,6c0,1.371-0.577,2.493-1.187,3.682c-0.268,0.521-0.544,1.06-0.776,1.63   c-0.419,1.03-1.333,3.399-1.501,4.784c-0.54,0.227-0.697,0.835-0.785,1.197c-0.03,0.125-0.076,0.312-0.081,0.334   c-0.074,0.046-0.354,0.101-0.538,0.138C3.021,17.885,2,18.087,2,19c0,0.266,0.04,0.491,0.083,0.726   c0.077,0.416,0.15,0.809-0.067,1.649C2.005,21.416,2,21.458,2,21.5c0,1.202,1.867,1.358,2.983,1.451   c0.186,0.016,0.34,0.027,0.439,0.043c0.154,0.024,0.476,0.173,0.788,0.316C6.876,23.618,7.706,24,8.5,24   c0.365,0,0.673-0.164,0.906-0.434l0.011,0.009C9.639,23.328,11.112,23,12,23h3.061c0.055,0.193,0.135,0.385,0.288,0.553   C15.619,23.85,16.006,24,16.5,24c1.298,0,1.927-0.669,2.536-1.315c0.103-0.109,0.208-0.221,0.318-0.331   c0.253-0.253,0.749-0.434,1.187-0.594C21.258,21.498,22,21.227,22,20.5C22,19.779,21.405,19.388,20.926,19.074z"/><path fill="#fff" d="M7.463,11.688c0.215-0.529,0.481-1.048,0.739-1.55c0.343-0.668,0.688-1.35,0.938-2.086   C9.748,8.589,10.621,9,11,9c0.209,0,1.874-0.559,2.83-1.199c1.92,3.928,2.156,6.516,2.168,8.949   c-0.483,0.523-0.733,1.786-0.862,2.951c-1.471,1.483-4.412,1.383-5.705,1.177c-0.251-0.474-0.625-0.926-1.145-1.288   c-0.493-0.343-0.875-1.144-1.212-1.85c-0.326-0.681-0.621-1.291-1.044-1.573C6.169,15.128,6.859,13.173,7.463,11.688z"/><path fill="#f68919" d="M8.5 23c-.575 0-1.294-.332-1.872-.598-.424-.196-.759-.351-1.05-.396-.116-.019-.295-.034-.512-.052-1.489-.124-1.945-.305-2.054-.442.237-.983.136-1.528.054-1.968C3.034 19.368 3 19.199 2.995 19.009c.083-.116.588-.216.832-.264.425-.084.792-.157 1.027-.392.222-.222.296-.528.369-.825C5.351 17 5.404 17 5.47 16.995c.177.079.492.739.701 1.176.391.818.833 1.745 1.543 2.239 1.006.701 1.222 1.769 1.054 2.303C8.708 22.903 8.619 23 8.5 23zM20.197 20.82c-.535.195-1.141.416-1.55.826-.118.118-.229.236-.339.353-.547.581-.942 1-1.808 1-.201 0-.339-.041-.412-.12-.15-.165-.114-.556-.098-.723C15.996 22.089 16 22.035 16 22c.004-.655.15-2.438.369-3.584.04.057.08.115.129.167C16.756 18.856 17.102 19 17.5 19l.176.001c.056 0 .113.001.17.001.5 0 1.038-.042 1.465-.448.025.288.109.574.335.8.224.224.494.401.731.557.376.247.622.42.638.53C20.936 20.55 20.491 20.713 20.197 20.82zM11.454 6.001c.903.19 1.78.583 1.996.874C12.945 7.236 11.339 7.963 11.012 8c-.345-.039-1.418-.737-1.517-.965C9.59 6.749 10.697 6.03 11.454 6.001z"/><path fill="#303c42" d="M13.296,5.574c0.158-0.15,0.268-0.402,0.268-0.703c0-0.468-0.253-0.847-0.565-0.847   s-0.565,0.379-0.565,0.847c0,0.141,0.029,0.269,0.07,0.386C12.756,5.339,13.03,5.444,13.296,5.574z"/><path fill="#fff" d="M13 3.176c-.468 0-.847.569-.847 1.271 0 .288.076.541.183.755.074.023.19.062.168.055-.041-.117-.07-.244-.07-.386 0-.468.253-.847.565-.847s.565.379.565.847c0 .301-.111.553-.268.703.021.012-.002 0 .051.027.294-.199.5-.638.5-1.153C13.847 3.745 13.468 3.176 13 3.176zM10.905 5.083c.075-.19.13-.399.13-.636 0-.702-.379-1.271-.847-1.271S9.341 3.745 9.341 4.447c0 .472.179.867.434 1.086.011-.014.036-.019.051-.026C9.705 5.352 9.624 5.129 9.624 4.871c0-.468.253-.847.565-.847s.565.379.565.847c0 .094-.017.18-.036.264C10.762 5.125 10.763 5.117 10.905 5.083z"/><linearGradient id="a" x1="10.376" x2="17.154" y1="6.817" y2="13.596" gradientUnits="userSpaceOnUse"><stop offset="0" stop-opacity=".1"/><stop offset="1" stop-opacity="0"/></linearGradient><path fill="url(#a)" d="M13.83,7.801C12.874,8.441,11.209,9,11,9c-0.379,0-1.252-0.411-1.859-0.947l6.778,6.778   C15.754,12.904,15.259,10.724,13.83,7.801z"/><linearGradient id="b" x1="5.245" x2="23.086" y1="10.06" y2="18.379" gradientUnits="userSpaceOnUse"><stop offset="0" stop-color="#fff" stop-opacity=".2"/><stop offset="1" stop-color="#fff" stop-opacity="0"/></linearGradient><path fill="url(#b)" d="M20.926,19.074c-0.207-0.136-0.421-0.276-0.573-0.428c-0.088-0.088-0.048-0.497-0.026-0.717   c0.042-0.422,0.084-0.857-0.199-1.17c-0.036-0.04-0.099-0.078-0.157-0.117C19.985,16.438,20,16.237,20,16   c0-3.247-1.496-5.12-2.697-6.625C16.575,8.463,16,7.743,16,7l0.001-0.233c0.008-1.38,0.024-4.253-1.502-5.788   C13.853,0.33,13.012,0,12,0C9.899,0,8.5,1.021,8.5,6c0,1.371-0.577,2.493-1.187,3.682c-0.268,0.521-0.544,1.06-0.776,1.63   c-0.419,1.03-1.333,3.399-1.501,4.784c-0.54,0.227-0.697,0.835-0.785,1.197c-0.03,0.125-0.076,0.312-0.081,0.334   c-0.074,0.046-0.354,0.101-0.538,0.138C3.021,17.885,2,18.087,2,19c0,0.266,0.04,0.491,0.083,0.726   c0.077,0.416,0.15,0.809-0.067,1.649C2.005,21.416,2,21.458,2,21.5c0,1.202,1.867,1.358,2.983,1.451   c0.186,0.016,0.34,0.027,0.439,0.043c0.154,0.024,0.476,0.173,0.788,0.316C6.876,23.618,7.706,24,8.5,24   c0.365,0,0.673-0.164,0.906-0.434l0.011,0.009C9.639,23.328,11.112,23,12,23h3.061c0.055,0.193,0.135,0.385,0.288,0.553   C15.619,23.85,16.006,24,16.5,24c1.298,0,1.927-0.669,2.536-1.315c0.103-0.109,0.208-0.221,0.318-0.331   c0.253-0.253,0.749-0.434,1.187-0.594C21.258,21.498,22,21.227,22,20.5C22,19.779,21.405,19.388,20.926,19.074z"/></svg>